<?xml version="1.0" encoding="UTF-8"?>
<svg width="11px" height="13px" viewBox="0 0 11 13" version="1.1" xmlns="http://www.w3.org/2000/svg" xmlns:xlink="http://www.w3.org/1999/xlink">
    <!-- Generator: Sketch 62 (91390) - https://sketch.com -->
    <title>arrow-pointing-to-right</title>
    <desc>Created with Sketch.</desc>
    <g id="Web" stroke="none" stroke-width="1" fill="none" fill-rule="evenodd">
        <g id="Category-mob" transform="translate(-31.000000, -3232.000000)" fill="#4F515E" fill-rule="nonzero">
            <g id="back" transform="translate(14.000000, 3216.000000)">
                <g id="arrow-pointing-to-right" transform="translate(22.500000, 22.500000) scale(1, -1) rotate(90.000000) translate(-22.500000, -22.500000) translate(16.000000, 17.000000)">
                    <path d="M12.0495755,4.73631181 L7.56957564,0.25631199 C7.29623965,-0.0170239993 6.85294367,-0.0170239993 6.57960768,0.25631199 C6.30621569,0.529703979 6.30621569,0.972887962 6.57960768,1.24627995 L9.86462355,4.53129582 L0.699999972,4.53129582 C0.313431988,4.53129582 2.81019647e-13,4.84472781 2.81019647e-13,5.23129579 C2.81019647e-13,5.61780778 0.313431988,5.93129577 0.699999972,5.93129577 L9.86462355,5.93129577 L6.57971968,9.21631164 C6.30632769,9.48970363 6.30632769,9.93288761 6.57971968,10.2062796 C6.71635967,10.3428636 6.89555967,10.4112956 7.07470366,10.4112956 C7.25384765,10.4112956 7.43299164,10.3428636 7.56968764,10.2062796 L12.0495755,5.72627977 C12.3229675,5.45288779 12.3229675,5.0097038 12.0495755,4.73631181 Z" id="Path"></path>
                </g>
            </g>
        </g>
    </g>
</svg>