<?xml version="1.0" standalone="no"?>
<svg version="1.0" xmlns="http://www.w3.org/2000/svg"
 width="512.000000pt" height="512.000000pt" viewBox="0 0 512.000000 512.000000"
 preserveAspectRatio="xMidYMid meet">

<g transform="translate(0.000000,512.000000) scale(0.100000,-0.100000)"
fill="#fff" stroke="none">
<path d="M209 4515 c-106 -15 -146 -31 -178 -71 -51 -65 -39 -137 38 -219 229
-242 329 -430 506 -945 118 -344 194 -519 296 -687 154 -252 401 -473 697
-622 196 -99 534 -211 785 -261 l57 -11 0 -495 c0 -534 0 -534 54 -583 39 -37
128 -41 176 -9 68 46 70 57 70 395 l0 302 33 5 c17 2 106 14 196 26 474 62
824 210 1081 457 178 170 256 289 474 722 215 425 322 580 506 733 47 39 93
85 102 102 33 61 14 146 -42 186 -15 11 -72 31 -127 45 -626 158 -1290 13
-1790 -391 -143 -116 -292 -279 -388 -426 -22 -32 -36 -46 -39 -37 -2 8 -14
57 -27 109 -74 317 -242 638 -474 908 -355 412 -882 696 -1423 766 -150 19
-445 20 -583 1z m561 -299 c217 -29 399 -86 607 -191 310 -157 558 -377 754
-669 206 -306 311 -623 326 -981 5 -134 -10 -351 -25 -367 -12 -12 -227 40
-400 98 -500 166 -814 426 -1009 834 -52 110 -107 251 -178 460 -135 397 -204
561 -313 733 l-61 97 97 0 c53 0 144 -7 202 -14z m3858 -880 c3 -4 2 -13 -3
-20 -6 -7 -40 -52 -76 -100 -93 -123 -136 -199 -307 -541 -83 -165 -182 -348
-221 -407 -213 -322 -509 -512 -937 -601 -65 -14 -164 -30 -219 -37 -55 -6
-113 -13 -129 -15 l-29 -5 6 127 c10 236 63 436 173 658 256 517 760 872 1341
945 74 10 390 6 401 -4z"/>
</g>
</svg>
